<svg width="1280" height="900" viewBox="0 0 1280 900" fill="none" xmlns="http://www.w3.org/2000/svg">
  <rect width="1280" height="900" fill="#EEF6FF"/>
  <rect x="88" y="72" width="1104" height="756" rx="44" fill="#172033"/>
  <rect x="116" y="104" width="1050" height="692" rx="30" fill="#F8FBFF"/>
  <rect x="152" y="148" width="212" height="604" rx="24" fill="#10192B"/>
  <circle cx="190" cy="190" r="18" fill="#14B8A6"/>
  <rect x="224" y="178" width="96" height="14" rx="7" fill="white"/>
  <rect x="180" y="246" width="140" height="12" rx="6" fill="#93A4BA"/>
  <rect x="180" y="294" width="114" height="12" rx="6" fill="#93A4BA"/>
  <rect x="180" y="342" width="132" height="12" rx="6" fill="#93A4BA"/>
  <rect x="180" y="676" width="116" height="38" rx="19" fill="#2563EB"/>
  <rect x="406" y="154" width="284" height="112" rx="24" fill="#FFFFFF" stroke="#DCE6F2" stroke-width="2"/>
  <rect x="724" y="154" width="182" height="112" rx="24" fill="#EAFBF8" stroke="#B7EFE7" stroke-width="2"/>
  <rect x="940" y="154" width="182" height="112" rx="24" fill="#EEF4FF" stroke="#CFE0FF" stroke-width="2"/>
  <text x="430" y="198" fill="#526071" font-family="Inter, Arial" font-size="22" font-weight="700">Receita recorrente</text>
  <text x="430" y="240" fill="#172033" font-family="Inter, Arial" font-size="44" font-weight="850">R$ 2.8M</text>
  <text x="748" y="206" fill="#0F766E" font-family="Inter, Arial" font-size="44" font-weight="850">+18%</text>
  <text x="748" y="238" fill="#526071" font-family="Inter, Arial" font-size="18" font-weight="700">crescimento</text>
  <text x="964" y="206" fill="#2563EB" font-family="Inter, Arial" font-size="44" font-weight="850">92</text>
  <text x="964" y="238" fill="#526071" font-family="Inter, Arial" font-size="18" font-weight="700">saúde da conta</text>
  <rect x="406" y="304" width="716" height="252" rx="28" fill="#FFFFFF" stroke="#DCE6F2" stroke-width="2"/>
  <path d="M454 484C512 430 548 450 604 382C654 322 724 404 774 350C838 282 886 390 948 326C1004 268 1042 306 1080 254" stroke="#2563EB" stroke-width="8" stroke-linecap="round"/>
  <path d="M454 508C538 484 600 510 674 468C746 428 804 498 874 456C946 412 1018 444 1080 392" stroke="#14B8A6" stroke-width="8" stroke-linecap="round"/>
  <rect x="454" y="510" width="626" height="2" fill="#E6EDF6"/>
  <rect x="454" y="454" width="626" height="2" fill="#E6EDF6"/>
  <rect x="454" y="398" width="626" height="2" fill="#E6EDF6"/>
  <rect x="454" y="342" width="626" height="2" fill="#E6EDF6"/>
  <rect x="406" y="592" width="342" height="160" rx="26" fill="#FFFFFF" stroke="#DCE6F2" stroke-width="2"/>
  <rect x="780" y="592" width="342" height="160" rx="26" fill="#FFFFFF" stroke="#DCE6F2" stroke-width="2"/>
  <rect x="440" y="628" width="236" height="18" rx="9" fill="#172033"/>
  <rect x="440" y="670" width="272" height="14" rx="7" fill="#CBD5E1"/>
  <rect x="440" y="702" width="188" height="14" rx="7" fill="#CBD5E1"/>
  <circle cx="834" cy="672" r="42" fill="#DBEAFE"/>
  <path d="M834 630A42 42 0 1 1 806 703" stroke="#2563EB" stroke-width="14" stroke-linecap="round"/>
  <text x="900" y="678" fill="#172033" font-family="Inter, Arial" font-size="34" font-weight="850">74%</text>
  <text x="900" y="708" fill="#526071" font-family="Inter, Arial" font-size="18" font-weight="700">risco mapeado</text>
</svg>
