<svg width="1280" height="900" viewBox="0 0 1280 900" fill="none" xmlns="http://www.w3.org/2000/svg">
  <rect width="1280" height="900" fill="#F7F1FF"/>
  <circle cx="1058" cy="176" r="170" fill="#DBEAFE"/>
  <circle cx="206" cy="740" r="190" fill="#CCFBF1"/>
  <rect x="292" y="86" width="696" height="728" rx="54" fill="#172033"/>
  <rect x="326" y="126" width="628" height="648" rx="36" fill="#FFFFFF"/>
  <rect x="368" y="172" width="548" height="92" rx="28" fill="#F8FBFF" stroke="#DCE6F2" stroke-width="2"/>
  <circle cx="412" cy="218" r="18" fill="#14B8A6"/>
  <rect x="446" y="204" width="186" height="14" rx="7" fill="#172033"/>
  <rect x="446" y="228" width="118" height="12" rx="6" fill="#94A3B8"/>
  <rect x="810" y="194" width="62" height="48" rx="18" fill="#2563EB"/>
  <rect x="368" y="302" width="254" height="324" rx="30" fill="#F1F5F9"/>
  <rect x="658" y="302" width="258" height="324" rx="30" fill="#EEF4FF"/>
  <rect x="404" y="338" width="182" height="142" rx="28" fill="#FFFFFF"/>
  <path d="M438 448C462 388 522 392 552 342" stroke="#14B8A6" stroke-width="18" stroke-linecap="round"/>
  <circle cx="524" cy="398" r="48" fill="#2563EB"/>
  <rect x="404" y="512" width="142" height="16" rx="8" fill="#172033"/>
  <rect x="404" y="544" width="172" height="12" rx="6" fill="#94A3B8"/>
  <rect x="404" y="582" width="94" height="30" rx="15" fill="#172033"/>
  <rect x="696" y="338" width="182" height="142" rx="28" fill="#FFFFFF"/>
  <path d="M728 394C766 342 826 360 846 442" stroke="#2563EB" stroke-width="18" stroke-linecap="round"/>
  <circle cx="760" cy="426" r="44" fill="#14B8A6"/>
  <rect x="696" y="512" width="154" height="16" rx="8" fill="#172033"/>
  <rect x="696" y="544" width="174" height="12" rx="6" fill="#94A3B8"/>
  <rect x="696" y="582" width="94" height="30" rx="15" fill="#172033"/>
  <rect x="410" y="668" width="460" height="66" rx="33" fill="#172033"/>
  <text x="480" y="710" fill="#FFFFFF" font-family="Inter, Arial" font-size="24" font-weight="850">Finalizar compra</text>
  <path d="M792 700H832M814 682L832 700L814 718" stroke="#14B8A6" stroke-width="7" stroke-linecap="round" stroke-linejoin="round"/>
  <rect x="214" y="254" width="210" height="150" rx="28" fill="#FFFFFF" stroke="#DCE6F2" stroke-width="2"/>
  <text x="246" y="310" fill="#2563EB" font-family="Inter, Arial" font-size="42" font-weight="900">24%</text>
  <text x="246" y="346" fill="#526071" font-family="Inter, Arial" font-size="18" font-weight="750">mais conversão</text>
  <rect x="840" y="590" width="230" height="128" rx="28" fill="#FFFFFF" stroke="#DCE6F2" stroke-width="2"/>
  <text x="878" y="646" fill="#172033" font-family="Inter, Arial" font-size="24" font-weight="900">Checkout</text>
  <text x="878" y="680" fill="#526071" font-family="Inter, Arial" font-size="18" font-weight="750">3 etapas</text>
</svg>
